<svg viewBox="0 0 100 100" fill="none" xmlns="http://www.w3.org/2000/svg">
  <rect width="100" height="100" rx="20" fill="#f8fafc" />
  <g transform="translate(0, 5)">
    <circle cx="50" cy="55" r="40" fill="#fbcfe8" opacity="0.3" filter="blur(8px)" />
    <rect x="35" y="70" width="10" height="15" rx="5" fill="#f472b6" />
    <rect x="65" y="70" width="10" height="15" rx="5" fill="#f472b6" />
    <path d="M 85 50 Q 100 40 90 30 Q 80 40 90 55" stroke="#f472b6" stroke-width="4" stroke-linecap="round" fill="none" />
    <polygon points="35,30 25,18 45,22" fill="#ec4899" />
    <polygon points="65,30 55,20 75,22" fill="#f472b6" />
    <ellipse cx="55" cy="50" rx="35" ry="30" fill="#fbcfe8" />
    <rect x="40" y="72" width="10" height="15" rx="5" fill="#ec4899" />
    <rect x="70" y="72" width="10" height="15" rx="5" fill="#ec4899" />
    <ellipse cx="25" cy="55" rx="10" ry="12" fill="#ec4899" />
    <circle cx="22" cy="52" r="2" fill="#9d174d" />
    <circle cx="22" cy="58" r="2" fill="#9d174d" />
    <circle cx="40" cy="45" r="4" fill="#0f172a" />
    <circle cx="41" cy="44" r="1.5" fill="#ffffff" />
    <circle cx="45" cy="55" r="5" fill="#f472b6" opacity="0.6" />
    <path d="M 50 25 L 65 25" stroke="#ec4899" stroke-width="3" stroke-linecap="round" />
    <circle cx="57.5" cy="15" r="6" fill="#fbbf24" />
    <path d="M 57.5 11 L 57.5 19" stroke="#d97706" stroke-width="1.5" />
  </g>
</svg>
